<svg width="21" height="20" viewBox="0 0 21 20" fill="none" xmlns="http://www.w3.org/2000/svg">
<path d="M5.83301 1.6665L3.33301 4.99984V16.6665C3.33301 17.1085 3.5086 17.5325 3.82116 17.845C4.13372 18.1576 4.55765 18.3332 4.99967 18.3332H16.6663C17.1084 18.3332 17.5323 18.1576 17.8449 17.845C18.1574 17.5325 18.333 17.1085 18.333 16.6665V4.99984L15.833 1.6665H5.83301Z" stroke="#1D1D1D" stroke-width="1.5" stroke-linecap="round" stroke-linejoin="round"/>
<path d="M3.33301 5H18.333" stroke="#1D1D1D" stroke-width="1.5" stroke-linecap="round" stroke-linejoin="round"/>
<path d="M14.1662 8.3335C14.1662 9.21755 13.815 10.0654 13.1899 10.6905C12.5647 11.3156 11.7169 11.6668 10.8328 11.6668C9.94879 11.6668 9.10094 11.3156 8.47582 10.6905C7.8507 10.0654 7.49951 9.21755 7.49951 8.3335" stroke="#1D1D1D" stroke-width="1.5" stroke-linecap="round" stroke-linejoin="round"/>
</svg>
