<svg width="20" height="20" viewBox="0 0 20 20" fill="none" xmlns="http://www.w3.org/2000/svg">
<path d="M9.58366 6.66699H16.8303C17.351 6.66699 17.6113 6.66699 17.8019 6.75103C18.645 7.12274 18.2681 8.05928 18.1262 8.73233C18.1007 8.85324 18.0178 8.95616 17.9017 9.01133C17.4197 9.23999 17.0822 9.67374 16.9936 10.1782L16.4997 12.9902C16.2825 14.2274 16.2082 15.9956 15.124 16.8672C14.3285 17.5003 13.1823 17.5003 10.8899 17.5003H9.11074C6.81834 17.5003 5.67216 17.5003 4.87666 16.8672C3.79243 15.9955 3.71814 14.2274 3.50088 12.9902L3.00705 10.1782C2.91847 9.67374 2.58094 9.23999 2.099 9.01133C1.98279 8.95616 1.89993 8.85324 1.87444 8.73233C1.73261 8.05928 1.35566 7.12274 2.19876 6.75103C2.38936 6.66699 2.64968 6.66699 3.1703 6.66699H6.25033" stroke="#1D1D1D" stroke-width="1.5" stroke-linecap="round"/>
<path d="M11.6663 10H8.33301" stroke="#1D1D1D" stroke-width="1.5" stroke-linecap="round" stroke-linejoin="round"/>
<path d="M5.41699 9.16667L8.33366 2.5M12.5003 2.5L14.5837 6.66667" stroke="#1D1D1D" stroke-width="1.5" stroke-linecap="round"/>
</svg>
